<svg width="11" height="10" viewBox="0 0 11 10" fill="none" xmlns="http://www.w3.org/2000/svg">
<path d="M6.80538 0C5.2972 0 4.03429 0.870304 3.67822 2.0453C3.97702 2.04935 4.25441 2.1071 4.50279 2.21317H8.48371C8.57553 2.21317 8.64982 2.28748 8.64982 2.37928C8.64982 2.4711 8.57553 2.54539 8.48371 2.54539H5.02938C5.23147 2.72354 5.39775 2.94498 5.52283 3.20078H8.48371C8.57553 3.20078 8.64982 3.27507 8.64982 3.36689C8.64982 3.45869 8.57553 3.53301 8.48371 3.53301H5.65391C5.7365 3.79451 5.78271 4.08161 5.78271 4.39115C5.78271 4.67942 5.74506 4.97402 5.67743 5.26112C5.79278 5.29731 5.91088 5.32795 6.03206 5.35311L5.96345 6.15173C5.94364 6.38094 6.22332 6.50732 6.38246 6.34103L7.28051 5.40212C8.83896 5.20839 10.0362 4.08195 10.0362 2.71734C10.0362 1.21667 8.5898 0 6.80538 0Z" fill="#FFE4B0"/>
<path d="M7.08363 8.79388C6.82004 8.01782 6.20928 7.43624 5.46096 7.18579C5.37269 7.15625 5.27617 7.19732 5.23627 7.28133L4.18314 9.50101L4.39045 8.3528C4.41251 8.23031 4.38167 8.10412 4.30561 8.00566L3.7557 7.29461C3.72957 7.26073 3.68918 7.24092 3.6465 7.24092C3.60384 7.24092 3.56343 7.26073 3.53734 7.29461L2.98744 8.00566C2.91135 8.10412 2.88053 8.23031 2.90257 8.3528L3.10972 9.50003L2.05676 7.28116C2.01685 7.19696 1.92048 7.1561 1.83206 7.18579C1.08391 7.43626 0.472985 8.01782 0.209347 8.79388L0.0268541 9.33116C-0.0255434 9.48561 -0.000389291 9.65595 0.0946699 9.78863C0.18975 9.92132 0.343036 10 0.506245 10H6.78682C6.95001 10 7.10329 9.92132 7.19839 9.78863C7.29345 9.65595 7.31859 9.48561 7.26621 9.33116L7.08363 8.79388Z" fill="#FFE4B0"/>
<path d="M3.6465 6.90468C4.55106 6.90468 5.28429 5.59589 5.28429 4.39123C5.28429 3.18657 4.55106 2.54224 3.6465 2.54224C2.74231 2.54224 2.00903 3.18657 2.00903 4.39123C2.00903 5.59589 2.74231 6.90468 3.6465 6.90468Z" fill="#FFE4B0"/>
</svg>
