<svg width="34" height="34" viewBox="0 0 34 34" fill="none" xmlns="http://www.w3.org/2000/svg">
<circle cx="17" cy="17" r="17" fill="#006F9E"/>
<path d="M24.0344 24.4077L24.8257 21.1676C24.9115 20.8155 24.7317 20.4507 24.4024 20.3028L20.9218 18.7583C20.6173 18.6231 20.2568 18.706 20.0442 18.9627L18.4702 20.8365C16.0879 19.6811 14.1194 17.6902 13.0039 15.229L14.9172 13.7033C15.1793 13.4941 15.2713 13.139 15.144 12.8311L13.6887 9.31235C13.5462 8.97613 13.186 8.78715 12.8319 8.86389L9.57268 9.57237C9.23422 9.64619 8.98667 9.94305 8.98217 10.2961C8.88011 18.2984 15.281 24.8773 23.2958 24.9796C23.6457 24.984 23.9519 24.7473 24.0344 24.4077Z" fill="white"/>
</svg>
