<?xml version="1.0" encoding="utf-8"?>
<!-- Uploaded to: SVG Repo, www.svgrepo.com, Generator: SVG Repo Mixer Tools -->
<svg version="1.1" id="Uploaded to svgrepo.com" xmlns="http://www.w3.org/2000/svg" xmlns:xlink="http://www.w3.org/1999/xlink" 
	 width="800px" height="800px" viewBox="0 0 32 32" xml:space="preserve">
<style type="text/css">
	.isometric_twee{fill:#F5DF89;}
	.isometric_acht{fill:#F05A28;}
	.isometric_negen{fill:#BE1E2D;}
	.st0{fill:#7BD6C4;}
	.st1{fill:#225B49;}
	.st2{fill:#FF7344;}
	.st3{fill:#72C0AB;}
	.st4{fill:#569080;}
	.st5{fill:#F29227;}
	.st6{fill:#F2D76C;}
	.st7{fill:#F28103;}
	.st8{fill:#F8F7C5;}
	.st9{fill:#AD9A74;}
</style>
<g>
	<path class="isometric_twee" d="M20.785,6.161c0.001-0.891-0.589-1.784-1.771-2.466c-2.35-1.357-6.149-1.364-8.485-0.015
		C9.346,4.362,8.985,5.262,9.006,6.161H9v13h0.028c0.043,0.498,0.237,1.13,0.643,1.583c0.523,0.673,5.021,6.542,5.021,6.542
		l5.481-6.727c0.377-0.44,0.582-0.917,0.613-1.398V6.161z"/>
	<path class="isometric_acht" d="M16.539,25.018l-1.848,2.268l-1.888-2.422C13.829,25.569,15.515,25.556,16.539,25.018z
		 M19.014,3.694c-2.35-1.357-6.149-1.364-8.485-0.015C9.346,4.362,8.985,5.262,9.006,6.161H9v13h0.028
		c0.071,0.832,0.424,1.655,1.528,2.292c2.35,1.357,6.149,1.364,8.485,0.015c1.107-0.639,1.69-1.468,1.744-2.308v-13
		C20.786,5.27,20.196,4.376,19.014,3.694z"/>
	<path class="isometric_twee" d="M18.652,8.369c-2.122,1.225-5.574,1.219-7.709-0.014c-1.849-1.068-1.86-3.391-0.024-4.451
		c2.122-1.225,5.574-1.219,7.709,0.014S20.774,7.143,18.652,8.369z"/>
	<path class="isometric_negen" d="M16.633,7.175c-1.014,0.586-2.664,0.583-3.685-0.007s-1.026-1.542-0.012-2.128
		s2.664-0.583,3.685,0.007S17.648,6.59,16.633,7.175z M17.157,24.553L24,25.702l-2.876-5.714c-0.098-0.193-0.258-0.325-0.436-0.419
		c-0.094,0.332-0.27,0.657-0.527,0.966l0.03,0l-0.638,0.782l0.886,1.758L18.4,22.734l-1.861,2.284l-1.848,2.268l-1.395-1.789
		l-4.557-0.763l2.873,5.714c0.589,1.169,2.389,0.3,1.787-0.898l-1.102-2.191l6.847,1.147L17.157,24.553z"/>
</g>
</svg>