<svg width="34" height="34" viewBox="0 0 34 34" fill="none" xmlns="http://www.w3.org/2000/svg">
<circle cx="17" cy="17" r="17" fill="#27B2EE"/>
<path d="M21.0008 9.25015C21.0008 10.4902 19.9907 11.5003 18.7506 11.5003H15.2504C14.6304 11.5003 14.0703 11.2503 13.6603 10.8403C13.2503 10.4302 13.0002 9.87019 13.0002 9.25015C13.0002 8.01007 14.0103 7 15.2504 7H18.7506C19.3707 7 19.9307 7.25002 20.3407 7.66004C20.7507 8.07007 21.0008 8.63011 21.0008 9.25015Z" fill="white"/>
<path d="M23.831 10.029C23.601 9.839 23.3409 9.689 23.0609 9.57899C22.7709 9.46898 22.4809 9.699 22.4209 9.99902C22.0809 11.7091 20.5708 12.9992 18.7506 12.9992H15.2504C14.2503 12.9992 13.3103 12.6092 12.6002 11.8991C12.0802 11.3791 11.7202 10.7191 11.5802 10.009C11.5202 9.709 11.2201 9.46898 10.9301 9.58899C9.77005 10.059 9 11.1191 9 13.2492V22.9998C9 26 10.7901 27.0001 13.0003 27.0001H21.0008C23.2109 27.0001 25.001 26 25.001 22.9998V13.2492C25.001 11.6191 24.551 10.6191 23.831 10.029ZM13.0003 17.2494H17.0005C17.4105 17.2494 17.7506 17.5895 17.7506 17.9995C17.7506 18.4095 17.4105 18.7495 17.0005 18.7495H13.0003C12.5902 18.7495 12.2502 18.4095 12.2502 17.9995C12.2502 17.5895 12.5902 17.2494 13.0003 17.2494ZM21.0008 22.7498H13.0003C12.5902 22.7498 12.2502 22.4098 12.2502 21.9998C12.2502 21.5897 12.5902 21.2497 13.0003 21.2497H21.0008C21.4108 21.2497 21.7508 21.5897 21.7508 21.9998C21.7508 22.4098 21.4108 22.7498 21.0008 22.7498Z" fill="white"/>
</svg>
