<svg width="750" height="750" viewBox="0 0 750 750" fill="none" xmlns="http://www.w3.org/2000/svg">
<path d="M0 375C-7.33818e-07 424.246 9.69966 473.009 28.5452 518.506C47.3907 564.003 75.013 605.343 109.835 640.165C144.657 674.987 185.997 702.609 231.494 721.455C276.991 740.3 325.754 750 375 750C424.246 750 473.009 740.3 518.506 721.455C564.003 702.609 605.343 674.987 640.165 640.165C674.987 605.343 702.609 564.003 721.455 518.506C740.3 473.009 750 424.246 750 375C750 325.754 740.3 276.991 721.455 231.494C702.609 185.997 674.987 144.657 640.165 109.835C605.343 75.013 564.003 47.3907 518.506 28.5452C473.009 9.69966 424.246 0 375 0C325.754 0 276.991 9.69966 231.494 28.5452C185.997 47.3907 144.657 75.013 109.835 109.835C75.013 144.657 47.3907 185.997 28.5452 231.494C9.69966 276.991 -7.33818e-07 325.754 0 375Z" fill="#C8D9FF"/>
<g filter="url(#filter0_d_3047_134)">
<path d="M261.912 372.791L92 202.901V542.723L261.912 372.791ZM394.124 435.53L635.674 194H115.134L356.71 435.53C366.716 445.537 384.117 445.537 394.124 435.53Z" fill="#769BEC"/>
<path d="M472.892 388.819L410.151 451.56C400.874 460.857 388.545 465.949 375.416 465.949C362.288 465.949 349.956 460.858 340.68 451.56L277.941 388.862L110.065 556.716H640.768L472.892 388.819ZM488.92 372.791L658.742 542.636V202.989L488.92 372.791Z" fill="#769BEC"/>
<path d="M185.618 254.035C187.134 256.243 189.559 257.794 192.756 258.601C195.952 259.408 199.856 259.454 204.246 258.736C208.636 258.019 213.425 256.552 218.34 254.42C223.254 252.287 228.199 249.531 232.89 246.309C237.582 243.086 241.929 239.46 245.683 235.638C249.437 231.816 252.524 227.872 254.769 224.032C257.014 220.192 258.373 216.531 258.767 213.259C259.161 209.986 258.583 207.165 257.066 204.957C255.55 202.749 253.124 201.198 249.928 200.391C246.732 199.584 242.827 199.538 238.437 200.256C234.048 200.973 229.259 202.44 224.344 204.572C219.429 206.705 214.485 209.461 209.793 212.683C205.102 215.906 200.755 219.532 197.001 223.354C193.247 227.176 190.159 231.12 187.914 234.96C185.669 238.8 184.311 242.461 183.917 245.734C183.523 249.006 184.101 251.827 185.618 254.035Z" fill="#FEFEFE"/>
<path d="M141.822 325.358C142.833 326.83 144.341 327.939 146.261 328.622C148.18 329.305 150.474 329.549 153.01 329.338C155.546 329.128 158.275 328.469 161.042 327.397C163.809 326.326 166.558 324.864 169.134 323.095C171.71 321.325 174.061 319.284 176.054 317.086C178.047 314.888 179.642 312.577 180.748 310.285C181.855 307.993 182.45 305.765 182.502 303.728C182.553 301.691 182.059 299.886 181.048 298.414C180.037 296.942 178.529 295.832 176.609 295.15C174.689 294.467 172.396 294.223 169.86 294.433C167.324 294.643 164.594 295.303 161.828 296.374C159.061 297.446 156.311 298.908 153.736 300.677C151.16 302.446 148.808 304.488 146.816 306.686C144.823 308.884 143.228 311.195 142.121 313.487C141.015 315.779 140.419 318.007 140.368 320.043C140.317 322.08 140.811 323.886 141.822 325.358Z" fill="#FEFEFE"/>
</g>
<defs>
<filter id="filter0_d_3047_134" x="92" y="194" width="588.742" height="392.716" filterUnits="userSpaceOnUse" color-interpolation-filters="sRGB">
<feFlood flood-opacity="0" result="BackgroundImageFix"/>
<feColorMatrix in="SourceAlpha" type="matrix" values="0 0 0 0 0 0 0 0 0 0 0 0 0 0 0 0 0 0 127 0" result="hardAlpha"/>
<feOffset dx="18" dy="26"/>
<feGaussianBlur stdDeviation="2"/>
<feComposite in2="hardAlpha" operator="out"/>
<feColorMatrix type="matrix" values="0 0 0 0 0 0 0 0 0 0 0 0 0 0 0 0 0 0 0.25 0"/>
<feBlend mode="normal" in2="BackgroundImageFix" result="effect1_dropShadow_3047_134"/>
<feBlend mode="normal" in="SourceGraphic" in2="effect1_dropShadow_3047_134" result="shape"/>
</filter>
</defs>
</svg>
