<svg width="34" height="34" viewBox="0 0 34 34" fill="none" xmlns="http://www.w3.org/2000/svg">
<circle cx="17" cy="17" r="17" fill="#EDAC2D"/>
<path d="M13.923 19.077C13.923 20.352 12.8903 21.3847 11.6153 21.3847C10.3403 21.3847 9.30762 20.352 9.30762 19.077C9.30762 17.802 10.3403 16.7693 11.6153 16.7693C12.8903 16.7693 13.923 17.802 13.923 19.077Z" fill="white"/>
<path d="M7 24.7691C7 23.1322 10.075 22.3076 11.6154 22.3076C13.1558 22.3076 16.2308 23.1322 16.2308 24.7691V25.9999H7V24.7691Z" fill="white"/>
<path d="M24.0768 19.077C24.0768 20.352 23.0441 21.3847 21.7691 21.3847C20.4941 21.3847 19.4614 20.352 19.4614 19.077C19.4614 17.802 20.4941 16.7693 21.7691 16.7693C23.0441 16.7693 24.0768 17.802 24.0768 19.077Z" fill="white"/>
<path d="M17.1538 24.7691C17.1538 23.1322 20.2288 22.3076 21.7692 22.3076C23.3096 22.3076 26.3846 23.1322 26.3846 24.7691V25.9999H17.1538V24.7691Z" fill="white"/>
<path fill-rule="evenodd" clip-rule="evenodd" d="M14.1494 14.9231C16.5709 14.9231 18.534 13.3733 18.534 11.4615C18.534 9.54978 16.5709 8 14.1494 8C11.7278 8 9.76478 9.54978 9.76478 11.4615C9.76478 11.9259 9.88062 12.369 10.0907 12.7736C9.62666 13.3424 9.51301 14.2036 9.49092 14.7449C9.48288 14.9419 9.72073 15.0426 9.87865 14.9246C10.1954 14.6879 10.6984 14.3668 11.3519 14.1271C12.111 14.6242 13.086 14.9231 14.1494 14.9231Z" fill="white"/>
<path fill-rule="evenodd" clip-rule="evenodd" d="M17.5063 14.8609C18.6996 14.0569 19.4616 12.8327 19.4616 11.4615C19.4616 11.0926 19.4064 10.7343 19.3026 10.392C19.5749 10.3369 19.8601 10.3076 20.1539 10.3076C22.0656 10.3076 23.6154 11.5474 23.6154 13.0768C23.6154 13.5146 23.4885 13.9285 23.2624 14.2966C23.4759 14.6581 23.5518 15.1115 23.5764 15.4526C23.5906 15.6492 23.3526 15.7523 23.191 15.6394C22.991 15.4995 22.7187 15.3351 22.3844 15.1946C21.7819 15.6011 21.0037 15.8461 20.1539 15.8461C19.0917 15.8461 18.1413 15.4634 17.5063 14.8609Z" fill="white"/>
</svg>
