<svg width="750" height="750" viewBox="0 0 750 750" fill="none" xmlns="http://www.w3.org/2000/svg">
<path d="M0 375C-7.33818e-07 424.246 9.69966 473.009 28.5452 518.506C47.3907 564.003 75.013 605.343 109.835 640.165C144.657 674.987 185.997 702.609 231.494 721.455C276.991 740.3 325.754 750 375 750C424.246 750 473.009 740.3 518.506 721.455C564.003 702.609 605.343 674.987 640.165 640.165C674.987 605.343 702.609 564.003 721.455 518.506C740.3 473.009 750 424.246 750 375C750 325.754 740.3 276.991 721.455 231.494C702.609 185.997 674.987 144.657 640.165 109.835C605.343 75.013 564.003 47.3907 518.506 28.5452C473.009 9.69966 424.246 0 375 0C325.754 0 276.991 9.69966 231.494 28.5452C185.997 47.3907 144.657 75.013 109.835 109.835C75.013 144.657 47.3907 185.997 28.5452 231.494C9.69966 276.991 -7.33818e-07 325.754 0 375Z" fill="#FFE8CD"/>
<g filter="url(#filter0_d_3046_122)">
<path d="M505 585H245C225 585 210 570 210 550V170C210 150 225 135 245 135H505C525 135 540 150 540 170V550C540 570 525 585 505 585Z" fill="#FF9D1C"/>
<path d="M470 450H280C265 450 255 440 255 425V205C255 190 265 180 280 180H475C490 180 500 190 500 205V425C495 440 485 450 470 450Z" fill="#FFCA83"/>
<path d="M345 520C345 527.956 348.161 535.587 353.787 541.213C359.413 546.839 367.044 550 375 550C382.956 550 390.587 546.839 396.213 541.213C401.839 535.587 405 527.956 405 520C405 512.043 401.839 504.413 396.213 498.787C390.587 493.161 382.956 490 375 490C367.044 490 359.413 493.161 353.787 498.787C348.161 504.413 345 512.043 345 520Z" fill="white"/>
</g>
<defs>
<filter id="filter0_d_3046_122" x="210" y="135" width="361" height="526" filterUnits="userSpaceOnUse" color-interpolation-filters="sRGB">
<feFlood flood-opacity="0" result="BackgroundImageFix"/>
<feColorMatrix in="SourceAlpha" type="matrix" values="0 0 0 0 0 0 0 0 0 0 0 0 0 0 0 0 0 0 127 0" result="hardAlpha"/>
<feOffset dx="27" dy="72"/>
<feGaussianBlur stdDeviation="2"/>
<feComposite in2="hardAlpha" operator="out"/>
<feColorMatrix type="matrix" values="0 0 0 0 0 0 0 0 0 0 0 0 0 0 0 0 0 0 0.25 0"/>
<feBlend mode="normal" in2="BackgroundImageFix" result="effect1_dropShadow_3046_122"/>
<feBlend mode="normal" in="SourceGraphic" in2="effect1_dropShadow_3046_122" result="shape"/>
</filter>
</defs>
</svg>
