<svg width="34" height="34" viewBox="0 0 34 34" fill="none" xmlns="http://www.w3.org/2000/svg">
<circle cx="17" cy="17" r="17" fill="#FF4D00"/>
<path fill-rule="evenodd" clip-rule="evenodd" d="M12.8836 8C13.2581 8 13.5617 8.31153 13.5617 8.69582V8.92169C13.6059 8.91015 13.6502 8.89901 13.6948 8.88829C15.5399 8.44416 17.4601 8.44416 19.3052 8.88829C19.3498 8.89901 19.3941 8.91014 19.4383 8.92169V8.69582C19.4383 8.31153 19.7419 8 20.1164 8C20.4909 8 20.7945 8.31153 20.7945 8.69582V9.42901C22.7277 10.3873 24.1726 12.1992 24.6754 14.399C25.1082 16.2924 25.1082 18.2628 24.6754 20.1562C24.0504 22.8905 21.9698 25.0255 19.3052 25.6669C17.4601 26.111 15.5399 26.111 13.6948 25.6669C11.0302 25.0255 8.94963 22.8906 8.32461 20.1562C7.8918 18.2628 7.8918 16.2924 8.32461 14.399C8.82745 12.1992 10.2723 10.3873 12.2055 9.42901V8.69582C12.2055 8.31153 12.5091 8 12.8836 8ZM15.5274 14.8879C15.7393 14.6706 15.7393 14.3181 15.5274 14.1007C15.3156 13.8833 14.9721 13.8833 14.7603 14.1007L13.3356 15.5626L12.8151 15.0285C12.6033 14.8111 12.2598 14.8111 12.048 15.0285C11.8361 15.2458 11.8361 15.5983 12.048 15.8157L12.9521 16.7435C13.1639 16.9608 13.5074 16.9608 13.7192 16.7435L15.5274 14.8879ZM17.4041 15.3293C17.1045 15.3293 16.8616 15.5785 16.8616 15.886C16.8616 16.1934 17.1045 16.4426 17.4041 16.4426H20.5685C20.8681 16.4426 21.1109 16.1934 21.1109 15.886C21.1109 15.5785 20.8681 15.3293 20.5685 15.3293H17.4041ZM15.5274 19.5267C15.7393 19.3093 15.7393 18.9569 15.5274 18.7395C15.3156 18.5221 14.9721 18.5221 14.7603 18.7395L13.3356 20.2014L12.8151 19.6673C12.6033 19.4499 12.2598 19.4499 12.048 19.6673C11.8361 19.8846 11.8361 20.2371 12.048 20.4545L12.9521 21.3822C13.1639 21.5996 13.5074 21.5996 13.7192 21.3822L15.5274 19.5267ZM17.4041 19.9681C17.1045 19.9681 16.8616 20.2173 16.8616 20.5248C16.8616 20.8322 17.1045 21.0814 17.4041 21.0814H20.5685C20.8681 21.0814 21.1109 20.8322 21.1109 20.5248C21.1109 20.2173 20.8681 19.9681 20.5685 19.9681H17.4041Z" fill="white"/>
</svg>
