<svg width="750" height="750" viewBox="0 0 750 750" fill="none" xmlns="http://www.w3.org/2000/svg">
<path d="M0 375C-7.33818e-07 424.246 9.69966 473.009 28.5452 518.506C47.3907 564.003 75.013 605.343 109.835 640.165C144.657 674.987 185.997 702.609 231.494 721.455C276.991 740.3 325.754 750 375 750C424.246 750 473.009 740.3 518.506 721.455C564.003 702.609 605.343 674.987 640.165 640.165C674.987 605.343 702.609 564.003 721.455 518.506C740.3 473.009 750 424.246 750 375C750 325.754 740.3 276.991 721.455 231.494C702.609 185.997 674.987 144.657 640.165 109.835C605.343 75.013 564.003 47.3907 518.506 28.5452C473.009 9.69966 424.246 0 375 0C325.754 0 276.991 9.69966 231.494 28.5452C185.997 47.3907 144.657 75.013 109.835 109.835C75.013 144.657 47.3907 185.997 28.5452 231.494C9.69966 276.991 -7.33818e-07 325.754 0 375Z" fill="#C8C9FF"/>
<g filter="url(#filter0_d_3050_161)">
<path d="M534.584 449.842L533.163 449.431C512.479 443.879 505.478 438.547 496.278 435.047C463.627 422.611 455.133 413.645 452.949 409.398C452.876 409.251 452.817 409.09 452.744 408.929L452.48 370.996L375.042 370.117L297.597 370.996L297.319 408.929C297.261 409.09 297.202 409.251 297.114 409.398C294.946 413.645 286.45 422.611 253.799 435.047C244.586 438.547 237.598 443.879 216.915 449.431L215.493 449.842C196.671 456.068 184 473.528 184 493.23V548H375.042H566.063V493.23C566.063 473.528 553.392 456.068 534.584 449.842Z" fill="#5D9CEC"/>
<path d="M417.333 548H333.998L345.879 473.001L404.076 447.996L417.333 548Z" fill="#967ADC"/>
<path d="M404.208 473H345.879L329.209 389.66H420.878L404.208 473Z" fill="#AC92EB"/>
<path d="M297.114 365.753V409.398L332.417 450.091L378.823 412.591L297.114 365.753Z" fill="#F5F7FA"/>
<path d="M482.496 297.61C482.496 367.424 415.941 431.694 375.044 431.694C334.147 431.694 267.584 367.423 267.584 297.61C267.584 227.782 315.688 181.713 375.044 181.713C434.377 181.712 482.496 227.781 482.496 297.61Z" fill="#EAC6BB"/>
<path d="M441.51 170.199C423.236 153.646 359.75 129.858 300.879 170.199C254.444 202 259.132 282.199 259.132 282.199C259.132 282.199 320.069 297.61 389.854 257.722C434.963 231.956 450.681 258.162 458.766 280.983C466.647 303.205 482.496 297.61 482.496 297.61C482.496 297.61 499.986 223.137 441.51 170.199Z" fill="#FFCE54"/>
<path d="M419.766 247.176C427.661 246.604 434.026 248.436 439.226 251.775C441.364 243.791 444.059 237.317 446.988 232.088L459.542 216.81C464.464 212.869 468.932 211.141 471.628 210.394C468.815 204.52 465.446 198.617 461.432 192.817C448.879 197.781 429.221 211.185 419.766 247.176Z" fill="#F6BB42"/>
</g>
<defs>
<filter id="filter0_d_3050_161" x="184" y="148" width="400.063" height="412" filterUnits="userSpaceOnUse" color-interpolation-filters="sRGB">
<feFlood flood-opacity="0" result="BackgroundImageFix"/>
<feColorMatrix in="SourceAlpha" type="matrix" values="0 0 0 0 0 0 0 0 0 0 0 0 0 0 0 0 0 0 127 0" result="hardAlpha"/>
<feOffset dx="14" dy="8"/>
<feGaussianBlur stdDeviation="2"/>
<feComposite in2="hardAlpha" operator="out"/>
<feColorMatrix type="matrix" values="0 0 0 0 0 0 0 0 0 0 0 0 0 0 0 0 0 0 0.25 0"/>
<feBlend mode="normal" in2="BackgroundImageFix" result="effect1_dropShadow_3050_161"/>
<feBlend mode="normal" in="SourceGraphic" in2="effect1_dropShadow_3050_161" result="shape"/>
</filter>
</defs>
</svg>
