<svg width="9" height="12" viewBox="0 0 9 12" fill="none" xmlns="http://www.w3.org/2000/svg">
<path d="M4.27481 12.0001L2.1885 7.47705C2.1885 7.47705 0 7.5063 0 9.51986V12.0001H4.27481Z" fill="white"/>
<path d="M4.47925 12.0001L6.56556 7.47705C6.56556 7.47705 8.75406 7.5063 8.75406 9.51968V12.0001H4.47925Z" fill="white"/>
<path d="M4.37696 7.47705H2.87415L4.37696 10.8039L5.87979 7.47705H4.37696Z" fill="#EDAC2D"/>
<path d="M4.37691 4.26565C4.92701 4.26565 5.37295 3.81971 5.37295 3.26961C5.37295 2.71951 4.92701 2.27356 4.37691 2.27356C3.8268 2.27356 3.38086 2.71951 3.38086 3.26961C3.38086 3.81971 3.8268 4.26565 4.37691 4.26565Z" fill="white"/>
<path d="M7.64868 3.76013V2.77931L6.65024 2.67938C6.59364 2.47198 6.50729 2.27386 6.39393 2.09119L7.03761 1.30369L6.34386 0.609938L5.5258 1.28025C5.35257 1.18875 5.16805 1.12045 4.97699 1.07719L4.86955 0H3.88442L3.77699 1.07738C3.58592 1.12066 3.40138 1.18891 3.22817 1.28044L2.40955 0.610875L1.7158 1.30463L2.35949 2.09213C2.24621 2.27482 2.15987 2.47294 2.10317 2.68031L1.10474 2.78025V3.76106L2.10467 3.861C2.16139 4.06798 2.24741 4.26577 2.36005 4.44841L1.71599 5.23591L2.40974 5.92966L3.22799 5.26029C3.40133 5.35141 3.58592 5.41931 3.77699 5.46223L3.8848 6.5396H4.86993L4.97774 5.46223C5.1688 5.41894 5.35335 5.35069 5.52655 5.25917L6.3448 5.92854L7.03855 5.23479L6.39449 4.44729C6.50717 4.26467 6.59317 4.06683 6.64986 3.85988L7.64868 3.76013ZM4.37696 4.74525C3.56209 4.74525 2.90153 4.08469 2.90153 3.26981C2.90153 2.45494 3.56209 1.79438 4.37696 1.79438C5.19184 1.79438 5.8524 2.45494 5.8524 3.26981C5.85242 4.08466 5.19184 4.74525 4.37696 4.74525Z" fill="#EDAC2D"/>
</svg>
